Jump_normalized_Motion_pl05
version=1
nRows=12
nColumns=43
inDegrees=yes
endheader
time		pelvis_tilt		pelvis_list		pelvis_rotation		pelvis_tx		pelvis_ty		pelvis_tz		hip_flexion_r		hip_adduction_r		hip_rotation_r		knee_angle_r		ankle_angle_r		subtalar_angle_r		mtp_angle_r		hip_flexion_l		hip_adduction_l		hip_rotation_l		knee_angle_l		ankle_angle_l		subtalar_angle_l		mtp_angle_l		lumbar_extension		lumbar_bending		lumbar_rotation		neck_flexion		neck_lateral_bending		neck_rotation		arm_flex_r		arm_add_r		arm_rot_r		elbow_flex_r		pro_sup_r		wrist_flex_r		wrist_dev_r		hand_finger_flex_r		arm_flex_l		arm_add_l		arm_rot_l		elbow_flex_l		pro_sup_l		wrist_flex_l		wrist_dev_l		hand_finger_flex_l		
0.270000		2.317730		-21.566889		94.487863		0.043544		1.639473		1.884396		100.107282		-13.113843		9.862815		-148.286164		44.428251		7.445017		-24.935433		103.616067		-13.218024		13.040150		-145.981036		46.521753		4.873188		-25.205509		-44.432351		0.613487		2.856593		44.877301		-0.502698		0.694464		28.439104		-31.808351		-9.117367		90.113366		69.917896		-10.913420		-25.000000		66.359470		47.569243		-42.102009		19.753288		87.782988		69.040471		-43.990155		3.518162		73.075730		
0.272929		2.318746		-21.720599		94.468812		0.043551		1.639240		1.883220		100.079078		-13.103362		9.877230		-148.324113		44.500740		7.455703		-24.835192		103.584565		-13.210185		13.050588		-146.016332		46.535836		4.807255		-25.186486		-44.163900		0.578680		2.903753		44.777712		-0.455272		0.675405		30.109986		-32.345341		-7.958914		90.165723		69.717776		-10.798859		-25.000000		66.229926		49.611892		-41.970664		21.331303		87.628621		69.014048		-44.083126		3.729970		72.980666		
0.275859		2.264159		-21.811430		94.427494		0.043561		1.639246		1.881993		99.982518		-13.080471		9.931049		-148.350720		44.556496		7.450655		-24.676793		103.437254		-13.212765		12.998464		-146.035026		46.538752		4.740763		-25.147210		-43.978475		0.474797		2.993748		44.681679		-0.331259		0.580796		31.733705		-32.920523		-6.875010		90.256795		69.232304		-10.768195		-25.000000		66.112990		51.827927		-41.702260		23.077586		87.414730		68.787089		-44.439435		3.907522		72.889616		
0.278788		2.192818		-21.915905		94.380890		0.043607		1.639293		1.880738		99.899382		-13.064066		10.012486		-148.374462		44.595592		7.449095		-24.469474		103.288269		-13.230818		12.925448		-146.033069		46.537596		4.666437		-25.091848		-43.781417		0.344278		3.117153		44.611696		-0.229474		0.434625		33.330194		-33.484121		-5.841928		90.377509		68.642622		-10.809048		-25.000000		66.028054		54.109539		-41.344132		24.897777		87.159496		68.444297		-44.923175		4.025632		72.856211		
0.281717		2.228243		-22.165856		94.384667		0.043583		1.638950		1.879555		99.966695		-13.052436		10.017757		-148.398499		44.641384		7.467581		-24.385949		103.370335		-13.202647		12.972360		-146.057897		46.532354		4.587429		-25.068633		-43.386903		0.364496		3.130671		44.447068		-0.253842		0.444450		35.147286		-33.897978		-4.600096		90.392159		68.565717		-10.765998		-25.000000		65.971517		56.014985		-41.111832		26.273668		86.986593		68.483255		-44.826640		4.156105		72.856459		
0.284646		2.234005		-22.433483		94.370135		0.043481		1.638739		1.878255		100.045019		-13.063508		10.025924		-148.408950		44.682194		7.471225		-24.325385		103.424812		-13.213994		12.948415		-146.088100		46.527416		4.558602		-25.052776		-43.002829		0.351462		3.164982		44.566956		-0.216109		0.440814		36.977460		-34.276532		-3.420342		90.374661		68.465679		-10.729549		-25.000000		65.899899		57.812811		-40.626379		27.362040		86.771472		68.497459		-44.769570		4.284627		72.796158		
0.287576		2.098318		-22.261468		94.308898		0.043597		1.639437		1.876948		99.640357		-13.014061		10.151011		-148.408430		44.708230		7.424180		-24.066121		102.922339		-13.206621		12.829992		-146.057612		46.496380		4.463023		-24.988374		-43.096429		0.155834		3.139684		44.160784		0.138524		0.394290		38.885491		-34.754649		-2.015139		90.378126		67.114454		-11.138417		-25.000000		65.834235		60.272315		-40.390952		29.361348		86.547289		67.964967		-45.383269		4.418509		72.640049		
0.290505		2.133119		-22.576147		94.312747		0.043545		1.639090		1.875665		99.770850		-13.000582		10.167940		-148.418468		44.738669		7.460037		-23.979120		103.054076		-13.181750		12.855187		-146.082750		46.498617		4.387167		-24.968124		-42.642476		0.185319		3.174571		44.030197		0.014549		0.380712		40.759615		-35.103230		-0.774623		90.414543		67.032074		-11.183538		-25.000000		65.800763		62.119334		-40.042709		30.632361		86.386579		67.993548		-45.252528		4.541495		72.622982		
0.293434		2.114979		-22.692336		94.302338		0.043587		1.639264		1.874316		99.654071		-12.983818		10.185945		-148.411695		44.766105		7.469732		-23.848439		102.925888		-13.169348		12.838302		-146.076215		46.468098		4.325183		-24.945733		-42.395238		0.132363		3.145700		43.789970		0.158699		0.392529		42.753922		-35.334680		0.548498		90.304455		66.493715		-11.419154		-25.000000		65.706369		64.137560		-39.663308		32.026850		86.139589		67.883503		-45.285410		4.684508		72.505676		
0.296364		2.066079		-22.750501		94.278555		0.043642		1.639618		1.872892		99.469469		-12.964398		10.215621		-148.400193		44.787331		7.477198		-23.666164		102.697791		-13.176850		12.777832		-146.067536		46.451354		4.263919		-24.915358		-42.228135		0.055253		3.089061		43.606901		0.309088		0.415459		44.793953		-35.508584		1.915137		90.185991		65.687731		-11.811570		-25.000000		65.612874		66.180327		-39.279216		33.423370		85.912137		67.628685		-45.446052		4.807173		72.329656		
0.299293		2.035188		-22.885415		94.255586		0.043638		1.639838		1.871463		99.355085		-12.945912		10.255923		-148.380192		44.816335		7.480471		-23.492123		102.549879		-13.178234		12.736561		-146.053653		46.454038		4.206351		-24.887795		-41.988670		0.005073		3.056955		43.459150		0.402464		0.449091		46.838477		-35.737800		3.293465		90.124516		65.071438		-12.153936		-25.000000		65.539242		68.115803		-38.880230		34.694127		85.753352		67.423490		-45.513303		4.918564		72.160469		
0.302222		2.003485		-23.002399		94.231450		0.043654		1.640154		1.869977		99.206506		-12.925654		10.279493		-148.355024		44.843991		7.474657		-23.311553		102.368865		-13.183985		12.694734		-146.028949		46.462747		4.154622		-24.860825		-41.769689		-0.048881		3.005599		43.331589		0.522829		0.503202		48.926825		-35.893847		4.678491		90.018734		64.437264		-12.523582		-25.000000		65.444733		70.019325		-38.460259		35.891734		85.587154		67.206177		-45.569006		5.032957		71.954437		
